<?xml version="1.0" standalone="no"?>
<!DOCTYPE svg PUBLIC "-//W3C//DTD SVG 20010904//EN"
 "http://www.w3.org/TR/2001/REC-SVG-20010904/DTD/svg10.dtd">
<svg version="1.0" xmlns="http://www.w3.org/2000/svg"
 width="257.000000pt" height="257.000000pt" viewBox="0 0 257.000000 257.000000"
 preserveAspectRatio="xMidYMid meet">
<metadata>
Created by potrace 1.11, written by Peter Selinger 2001-2013
</metadata>
<g transform="translate(0.000000,257.000000) scale(0.100000,-0.100000)"
fill="#000000" stroke="none">
<path d="M1119 2126 c-2 -2 -31 -7 -64 -10 -185 -18 -413 -87 -580 -176 -77
-42 -198 -126 -240 -167 -156 -154 -224 -290 -231 -458 -4 -111 13 -194 62
-293 29 -60 104 -164 149 -207 147 -141 375 -260 615 -319 166 -41 294 -55
490 -51 189 4 234 9 377 39 169 36 355 113 505 210 52 32 182 145 200 171 3 6
17 22 30 38 40 46 95 158 117 235 20 72 23 203 7 273 -17 74 -78 202 -112 237
-8 7 -14 17 -14 21 0 13 -123 129 -190 179 -161 121 -433 229 -640 256 -25 3
-56 9 -70 12 -27 6 -405 15 -411 10z"/>
</g>
</svg>
